HIERARCHY
ROOT Hip
{
	OFFSET	0.0000	0.0000	0.0000
	CHANNELS 6 Xposition Yposition Zposition Xrotation Yrotation Zrotation
	JOINT LowerSpine
	{
		OFFSET	0.0000	8.4380	-5.1862
		CHANNELS 3 Xrotation Yrotation Zrotation
		JOINT MiddleSpine
		{
			OFFSET	10.9776	0.0000	0.0000
			CHANNELS 3 Xrotation Yrotation Zrotation
			JOINT Chest
			{
				OFFSET	15.4684	0.0000	0.0000
				CHANNELS 3 Xrotation Yrotation Zrotation
				JOINT Neck
				{
					OFFSET	25.9469	-0.6053	0.0000
					CHANNELS 3 Xrotation Yrotation Zrotation
					JOINT Head
					{
						OFFSET	8.9816	0.0000	0.0000
						CHANNELS 3 Xrotation Yrotation Zrotation
						End Site
						{
							OFFSET	19.9592	0.0000	0.0000
						}
					}
				}
				JOINT RClavicle
				{
					OFFSET	23.9510	0.0000	3.1935
					CHANNELS 3 Xrotation Yrotation Zrotation
					JOINT RShoulder
					{
						OFFSET	-15.7678	-3.9918	0.9980
						CHANNELS 3 Xrotation Yrotation Zrotation
						JOINT RForearm
						{
							OFFSET	-31.6852	0.0000	0.1996
							CHANNELS 3 Xrotation Yrotation Zrotation
							JOINT RHand
							{
								OFFSET	-26.6954	0.0000	0.0000
								CHANNELS 3 Xrotation Yrotation Zrotation
								End Site
								{
									OFFSET	-15.9674	-0.9980	0.0000
								}
							}
						}
					}
				}
				JOINT LClavicle
				{
					OFFSET	23.9510	0.0000	-3.1935
					CHANNELS 3 Xrotation Yrotation Zrotation
					JOINT LShoulder
					{
						OFFSET	-15.7678	-3.9918	-0.9980
						CHANNELS 3 Xrotation Yrotation Zrotation
						JOINT LForearm
						{
							OFFSET	-31.6852	0.0000	-0.1996
							CHANNELS 3 Xrotation Yrotation Zrotation
							JOINT LHand
							{
								OFFSET	-26.6954	0.0000	0.0000
								CHANNELS 3 Xrotation Yrotation Zrotation
								End Site
								{
									OFFSET	-15.9674	-0.9980	0.0000
								}
							}
						}
					}
				}
			}
		}
	}
	JOINT RThigh
	{
		OFFSET	-8.9816	0.4531	0.0000
		CHANNELS 3 Xrotation Yrotation Zrotation
		JOINT RShin
		{
			OFFSET	43.6108	0.0000	-0.4990
			CHANNELS 3 Xrotation Yrotation Zrotation
			JOINT RFoot
			{
				OFFSET	0.0000	-45.2226	-0.4092
				CHANNELS 3 Xrotation Yrotation Zrotation
				JOINT RToe
				{
					OFFSET	0.0000	-3.9769	12.3308
					CHANNELS 3 Xrotation Yrotation Zrotation
					End Site
					{
						OFFSET	6.8477	0.0000	0.0000
					}
				}
			}
		}
	}
	JOINT LThigh
	{
		OFFSET	8.9816	0.4531	0.0000
		CHANNELS 3 Xrotation Yrotation Zrotation
		JOINT LShin
		{
			OFFSET	43.6108	0.0000	0.4990
			CHANNELS 3 Xrotation Yrotation Zrotation
			JOINT LFoot
			{
				OFFSET	0.0000	-45.2226	0.4092
				CHANNELS 3 Xrotation Yrotation Zrotation
				JOINT LToe
				{
					OFFSET	0.0000	-3.9769	-12.3308
					CHANNELS 3 Xrotation Yrotation Zrotation
					End Site
					{
						OFFSET	6.8477	0.0000	0.0000
					}
				}
			}
		}
	}
}
MOTION
Frames:	8
Frame Time: 0.0333333000
	1.1839	89.8226	13.4720	-8.266568	-60.515660	-1.940292	-89.999990	-90.000000	0.000000	-0.267131	-1.070487	-1.000692	-0.963961	-3.548980	-3.358229	0.000000	0.000000	0.000000	0.000000	0.000000	0.000000	90.001950	0.037293	-90.501390	-44.662430	-16.606330	-10.644060	159.295400	73.622230	-158.762100	0.000000	0.000000	0.000000	-90.001190	-0.023926	-90.321780	10.634690	-29.978340	75.526920	-5.008932	-41.785350	-7.873305	0.000000	0.000000	0.000000	143.101200	72.159710	114.883400	89.331950	54.004010	90.280770	-4.969306	6.915224	2.391344	153.597400	90.000000	0.000000	-95.868840	68.282230	-9.615774	-89.775550	-24.067940	90.022850	0.010542	6.652907	-2.150411	180.000000	-90.000000	0.000000
	0.9271	89.6346	16.1222	-9.899714	-60.497200	-3.271951	-89.999990	-90.000000	0.000000	-0.321791	-0.980532	-0.819356	-1.128054	-3.249817	-2.754734	0.000000	0.000000	0.000000	0.000000	0.000000	0.000000	90.006000	0.100606	-91.353500	-44.696460	-7.369395	-13.475820	162.239300	71.151990	-161.568600	0.000000	0.000000	0.000000	-90.002800	-0.052206	-90.702240	7.277005	-25.761620	74.772030	-5.999600	-46.700300	-8.565141	0.000000	0.000000	0.000000	148.333700	69.454560	112.687800	89.353610	53.067670	90.264310	-5.640711	4.883648	1.672908	153.398600	90.000000	0.000000	-93.679320	69.437550	-10.062520	-89.770300	-24.575800	90.024500	-0.514452	7.559948	-2.417909	180.000400	-90.000000	0.000000
	0.8597	89.4474	19.0675	-11.355970	-59.941630	-4.278754	-89.999990	-90.000000	0.000000	-0.362863	-0.857657	-0.629763	-1.247036	-2.842967	-2.121520	0.000000	0.000000	0.000000	0.000000	0.000000	0.000000	90.011410	0.168612	-92.269740	-45.591790	0.431357	-14.264030	164.798000	68.291850	-163.969600	0.000000	0.000000	0.000000	-90.003620	-0.065520	-90.881360	3.831975	-21.610250	74.590780	-7.042919	-51.054190	-9.351652	0.000000	0.000000	0.000000	151.459500	67.187120	112.785800	89.375400	52.084190	90.248010	-5.871671	2.580873	0.829324	153.134500	90.000000	0.000000	-95.008740	71.019740	-7.485503	-89.761600	-25.411580	90.027320	-0.446238	7.835338	-2.597781	180.005900	-90.000000	0.000000
	0.9373	89.0953	22.0416	-12.143540	-58.067680	-4.748291	-89.999990	-90.000000	0.000000	-0.387075	-0.710574	-0.444072	-1.312340	-2.356771	-1.499399	0.000000	0.000000	0.000000	0.000000	0.000000	0.000000	90.017230	0.230004	-93.098000	-48.482570	5.948267	-12.725490	167.284700	64.549710	-166.249900	0.000000	0.000000	0.000000	-90.003140	-0.057816	-90.777680	0.718393	-17.735260	74.897440	-8.361883	-55.579140	-10.410240	0.000000	0.000000	0.000000	153.389600	66.192540	114.129400	89.391830	51.313850	90.235910	-5.095979	0.672022	0.200048	151.058000	90.000000	0.000000	-95.765140	72.607060	-6.724042	-89.742140	-27.241370	90.034080	0.031628	8.521791	-2.926574	180.019800	-90.000000	0.000000
	1.0763	88.6837	24.9604	-12.369450	-53.988540	-4.987176	-89.999990	-90.000000	0.000000	-0.389513	-0.548174	-0.269770	-1.308860	-1.820117	-0.913784	0.000000	0.000000	0.000000	0.000000	0.000000	0.000000	90.021880	0.273325	-93.683260	-54.944090	8.782889	-7.309462	169.433500	60.158650	-168.154800	0.000000	0.000000	0.000000	-90.001420	-0.028056	-90.377290	-1.678401	-14.403220	75.591190	-10.064070	-60.180340	-11.853070	0.000000	0.000000	0.000000	154.993200	67.236190	116.560900	89.416700	50.097480	90.217900	-3.350050	0.121020	0.075360	147.670500	90.000000	0.000000	-86.886790	73.956220	-16.428670	-89.715000	-29.707330	90.044500	1.268187	9.621359	-3.362985	180.027900	-90.000000	0.000000
	1.2591	88.4536	28.0056	-12.412780	-47.306200	-5.157719	-89.999990	-90.000000	0.000000	-0.363136	-0.380088	-0.112761	-1.213576	-1.264287	-0.385067	0.000000	0.000000	0.000000	0.000000	0.000000	0.000000	90.023880	0.290822	-93.919780	-64.446240	8.232512	1.884934	171.373300	54.804700	-169.792400	0.000000	0.000000	0.000000	-89.999160	0.017960	-89.758450	-3.326067	-11.804020	76.512440	-11.938870	-64.076220	-13.511380	0.000000	0.000000	0.000000	154.448800	70.811870	122.285900	89.462710	47.679500	90.185700	-1.236306	0.271730	0.129700	146.086600	90.000000	0.000000	-71.317100	74.383290	-32.978610	-89.689130	-31.961220	90.055470	3.528523	10.501940	-3.790586	180.018000	-90.000000	0.000000
	1.4406	88.4029	31.2200	-12.347350	-37.682300	-5.277040	-89.999990	-90.000000	0.000000	-0.299986	-0.217012	0.018972	-0.999731	-0.723941	0.059082	0.000000	0.000000	0.000000	0.000000	0.000000	0.000000	90.023030	0.283380	-93.819210	-75.474100	4.180077	11.860710	173.106200	48.386830	-171.152600	0.000000	0.000000	0.000000	-89.997270	0.068240	-89.082680	-3.822021	-10.821220	77.240650	-13.363540	-66.440130	-14.805550	0.000000	0.000000	0.000000	149.536500	76.564170	133.260100	89.533040	43.518280	90.139670	-0.009595	-0.433459	-0.112207	148.237700	90.000000	0.000000	-60.569580	74.482600	-45.070510	-89.669210	-33.628730	90.064550	6.473935	10.078140	-3.805691	180.011300	-90.000000	0.000000
	1.9491	88.3681	34.2616	-11.742340	-24.648460	-5.177881	-89.999990	-90.000000	0.000000	-0.194720	-0.070278	0.114884	-0.648516	-0.235982	0.382298	0.000000	0.000000	0.000000	0.000000	0.000000	0.000000	90.020740	0.263085	-93.544870	-87.728060	-3.166537	19.574140	174.431000	42.045540	-172.094300	0.000000	0.000000	0.000000	-89.996190	0.108240	-88.545210	-2.482258	-12.999750	77.652580	-13.433140	-66.544930	-14.869380	0.000000	0.000000	0.000000	137.530000	83.449080	150.933400	89.605210	38.594410	90.097250	-0.039115	-0.973105	-0.302306	153.313400	90.000000	0.000000	-50.605340	74.432500	-57.326100	-89.655930	-34.709350	90.070900	9.283275	7.986238	-3.124953	180.027500	-90.000000	0.000000
